{
	"asset":{
		"generator":"Khronos glTF Blender I/O v3.6.27",
		"version":"2.0"
	},
	"scene":0,
	"scenes":[
		{
			"name":"Scene",
			"nodes":[
				0,
				1,
				2,
				3
			]
		}
	],
	"nodes":[
		{
			"mesh":0,
			"name":"baseClapper"
		},
		{
			"mesh":1,
			"name":"connectionClapper"
		},
		{
			"mesh":2,
			"name":"screws",
			"rotation":[
				0,
				0.7071068286895752,
				0,
				0.7071068286895752
			],
			"translation":[
				0,
				-1.0110329389572144,
				1.1561956405639648
			]
		},
		{
			"mesh":3,
			"name":"topClapper",
			"translation":[
				0,
				-1.0223263502120972,
				1.316237449645996
			]
		}
	],
	"meshes":[
		{
			"name":"Cube.001",
			"primitives":[
				{
					"attributes":{
						"POSITION":0,
						"NORMAL":1,
						"TEXCOORD_0":2
					},
					"indices":3
				}
			]
		},
		{
			"name":"Cube.002",
			"primitives":[
				{
					"attributes":{
						"POSITION":4,
						"NORMAL":5,
						"TEXCOORD_0":6
					},
					"indices":7
				}
			]
		},
		{
			"name":"Cylinder.001",
			"primitives":[
				{
					"attributes":{
						"POSITION":8,
						"NORMAL":9,
						"TEXCOORD_0":10
					},
					"indices":11
				}
			]
		},
		{
			"name":"Cube.003",
			"primitives":[
				{
					"attributes":{
						"POSITION":12,
						"NORMAL":13,
						"TEXCOORD_0":14
					},
					"indices":15
				}
			]
		}
	],
	"accessors":[
		{
			"bufferView":0,
			"componentType":5126,
			"count":121,
			"max":[
				0.03948051482439041,
				1.0252859592437744,
				1.3051817417144775
			],
			"min":[
				-0.03948051482439041,
				-1.0252859592437744,
				0.019597560167312622
			],
			"type":"VEC3"
		},
		{
			"bufferView":1,
			"componentType":5126,
			"count":121,
			"type":"VEC3"
		},
		{
			"bufferView":2,
			"componentType":5126,
			"count":121,
			"type":"VEC2"
		},
		{
			"bufferView":3,
			"componentType":5123,
			"count":216,
			"type":"SCALAR"
		},
		{
			"bufferView":4,
			"componentType":5126,
			"count":256,
			"max":[
				0.0730123221874237,
				-0.5390147566795349,
				1.5293076038360596
			],
			"min":[
				-0.0730123221874237,
				-1.0801262855529785,
				1.0712651014328003
			],
			"type":"VEC3"
		},
		{
			"bufferView":5,
			"componentType":5126,
			"count":256,
			"type":"VEC3"
		},
		{
			"bufferView":6,
			"componentType":5126,
			"count":256,
			"type":"VEC2"
		},
		{
			"bufferView":7,
			"componentType":5123,
			"count":564,
			"type":"SCALAR"
		},
		{
			"bufferView":8,
			"componentType":5126,
			"count":672,
			"max":[
				0.024933235719799995,
				0.37884393334388733,
				0.07671863585710526
			],
			"min":[
				-0.3162595331668854,
				-0.024933235719799995,
				-0.07684884965419769
			],
			"type":"VEC3"
		},
		{
			"bufferView":9,
			"componentType":5126,
			"count":672,
			"type":"VEC3"
		},
		{
			"bufferView":10,
			"componentType":5126,
			"count":672,
			"type":"VEC2"
		},
		{
			"bufferView":11,
			"componentType":5123,
			"count":1116,
			"type":"SCALAR"
		},
		{
			"bufferView":12,
			"componentType":5126,
			"count":48,
			"max":[
				0.03948051482439041,
				1.9960370063781738,
				0.643952488899231
			],
			"min":[
				-0.03948051482439041,
				-0.04404318332672119,
				0
			],
			"type":"VEC3"
		},
		{
			"bufferView":13,
			"componentType":5126,
			"count":48,
			"type":"VEC3"
		},
		{
			"bufferView":14,
			"componentType":5126,
			"count":48,
			"type":"VEC2"
		},
		{
			"bufferView":15,
			"componentType":5123,
			"count":84,
			"type":"SCALAR"
		}
	],
	"bufferViews":[
		{
			"buffer":0,
			"byteLength":1452,
			"byteOffset":0,
			"target":34962
		},
		{
			"buffer":0,
			"byteLength":1452,
			"byteOffset":1452,
			"target":34962
		},
		{
			"buffer":0,
			"byteLength":968,
			"byteOffset":2904,
			"target":34962
		},
		{
			"buffer":0,
			"byteLength":432,
			"byteOffset":3872,
			"target":34963
		},
		{
			"buffer":0,
			"byteLength":3072,
			"byteOffset":4304,
			"target":34962
		},
		{
			"buffer":0,
			"byteLength":3072,
			"byteOffset":7376,
			"target":34962
		},
		{
			"buffer":0,
			"byteLength":2048,
			"byteOffset":10448,
			"target":34962
		},
		{
			"buffer":0,
			"byteLength":1128,
			"byteOffset":12496,
			"target":34963
		},
		{
			"buffer":0,
			"byteLength":8064,
			"byteOffset":13624,
			"target":34962
		},
		{
			"buffer":0,
			"byteLength":8064,
			"byteOffset":21688,
			"target":34962
		},
		{
			"buffer":0,
			"byteLength":5376,
			"byteOffset":29752,
			"target":34962
		},
		{
			"buffer":0,
			"byteLength":2232,
			"byteOffset":35128,
			"target":34963
		},
		{
			"buffer":0,
			"byteLength":576,
			"byteOffset":37360,
			"target":34962
		},
		{
			"buffer":0,
			"byteLength":576,
			"byteOffset":37936,
			"target":34962
		},
		{
			"buffer":0,
			"byteLength":384,
			"byteOffset":38512,
			"target":34962
		},
		{
			"buffer":0,
			"byteLength":168,
			"byteOffset":38896,
			"target":34963
		}
	],
	"buffers":[
		{
			"byteLength":39064,
			"uri":"data:application/octet-stream;base64,"
		}
	]
}
