{
	"asset":{
		"generator":"Khronos glTF Blender I/O v3.6.27",
		"version":"2.0"
	},
	"scene":0,
	"scenes":[
		{
			"name":"Scene",
			"nodes":[
				0,
				1
			]
		}
	],
	"nodes":[
		{
			"mesh":0,
			"name":"screen"
		},
		{
			"mesh":1,
			"name":"insideScreen"
		}
	],
	"meshes":[
		{
			"name":"Cube.000",
			"primitives":[
				{
					"attributes":{
						"POSITION":0,
						"NORMAL":1,
						"TEXCOORD_0":2
					},
					"indices":3
				}
			]
		},
		{
			"name":"Cube.001",
			"primitives":[
				{
					"attributes":{
						"POSITION":4,
						"NORMAL":5,
						"TEXCOORD_0":6
					},
					"indices":7
				}
			]
		}
	],
	"accessors":[
		{
			"bufferView":0,
			"componentType":5126,
			"count":144,
			"max":[
				0.1152963936328888,
				1,
				1.1879987716674805
			],
			"min":[
				-0.261633038520813,
				-1,
				-0.007745706010609865
			],
			"type":"VEC3"
		},
		{
			"bufferView":1,
			"componentType":5126,
			"count":144,
			"type":"VEC3"
		},
		{
			"bufferView":2,
			"componentType":5126,
			"count":144,
			"type":"VEC2"
		},
		{
			"bufferView":3,
			"componentType":5123,
			"count":264,
			"type":"SCALAR"
		},
		{
			"bufferView":4,
			"componentType":5126,
			"count":4,
			"max":[
				0.07131337374448776,
				0.97393399477005,
				1.1552106142044067
			],
			"min":[
				-0.04499496892094612,
				-0.97393399477005,
				0.2767040431499481
			],
			"type":"VEC3"
		},
		{
			"bufferView":5,
			"componentType":5126,
			"count":4,
			"type":"VEC3"
		},
		{
			"bufferView":6,
			"componentType":5126,
			"count":4,
			"type":"VEC2"
		},
		{
			"bufferView":7,
			"componentType":5123,
			"count":6,
			"type":"SCALAR"
		}
	],
	"bufferViews":[
		{
			"buffer":0,
			"byteLength":1728,
			"byteOffset":0,
			"target":34962
		},
		{
			"buffer":0,
			"byteLength":1728,
			"byteOffset":1728,
			"target":34962
		},
		{
			"buffer":0,
			"byteLength":1152,
			"byteOffset":3456,
			"target":34962
		},
		{
			"buffer":0,
			"byteLength":528,
			"byteOffset":4608,
			"target":34963
		},
		{
			"buffer":0,
			"byteLength":48,
			"byteOffset":5136,
			"target":34962
		},
		{
			"buffer":0,
			"byteLength":48,
			"byteOffset":5184,
			"target":34962
		},
		{
			"buffer":0,
			"byteLength":32,
			"byteOffset":5232,
			"target":34962
		},
		{
			"buffer":0,
			"byteLength":12,
			"byteOffset":5264,
			"target":34963
		}
	],
	"buffers":[
		{
			"byteLength":5276,
			"uri":"data:application/octet-stream;base64,"
		}
	]
}
