{
	"asset":{
		"generator":"Khronos glTF Blender I/O v3.6.27",
		"version":"2.0"
	},
	"scene":0,
	"scenes":[
		{
			"name":"Scene",
			"nodes":[
				0
			]
		}
	],
	"nodes":[
		{
			"mesh":0,
			"name":"speaker",
			"rotation":[
				0,
				0.7071068286895752,
				0,
				0.7071068286895752
			],
			"scale":[
				0.6220864057540894,
				0.6220864057540894,
				0.6220864057540894
			],
			"translation":[
				0,
				0,
				2.2393834590911865
			]
		}
	],
	"meshes":[
		{
			"name":"Circle",
			"primitives":[
				{
					"attributes":{
						"POSITION":0,
						"NORMAL":1,
						"TEXCOORD_0":2
					},
					"indices":3
				}
			]
		}
	],
	"accessors":[
		{
			"bufferView":0,
			"componentType":5126,
			"count":766,
			"max":[
				3.652388095855713,
				2.2330105304718018,
				5.1314287185668945
			],
			"min":[
				-2.2330100536346436,
				-2.2330105304718018,
				-5.280458979720472e-17
			],
			"type":"VEC3"
		},
		{
			"bufferView":1,
			"componentType":5126,
			"count":766,
			"type":"VEC3"
		},
		{
			"bufferView":2,
			"componentType":5126,
			"count":766,
			"type":"VEC2"
		},
		{
			"bufferView":3,
			"componentType":5123,
			"count":4584,
			"type":"SCALAR"
		}
	],
	"bufferViews":[
		{
			"buffer":0,
			"byteLength":9192,
			"byteOffset":0,
			"target":34962
		},
		{
			"buffer":0,
			"byteLength":9192,
			"byteOffset":9192,
			"target":34962
		},
		{
			"buffer":0,
			"byteLength":6128,
			"byteOffset":18384,
			"target":34962
		},
		{
			"buffer":0,
			"byteLength":9168,
			"byteOffset":24512,
			"target":34963
		}
	],
	"buffers":[
		{
			"byteLength":33680,
			"uri":"data:application/octet-stream;base64,"
		}
	]
}
